<svg xmlns="http://www.w3.org/2000/svg" version="1.1"
    xmlns:xlink="http://www.w3.org/1999/xlink"
    xmlns:svgjs="http://svgjs.dev/svgjs" width="1440" height="720" preserveAspectRatio="none" viewBox="0 0 1440 720">
    <g mask="url(&quot;#SvgjsMask2487&quot;)" fill="none">
        <rect width="1440" height="720" x="0" y="0" fill="url(&quot;#SvgjsLinearGradient2488&quot;)"></rect>
        <path d="M360 81.82C317.47 88.28 345.82 141.06 308.57 180C255.82 235.15 246.43 228.39 180 270C102.73 318.39 21.18 323.8 21.18 360C21.18 392.91 108.01 369.47 180 408.21C275.27 459.47 271.68 471.47 355.71 540C361.68 544.87 358.19 555 360 555C361.77 555 361 547.41 362.86 540C385.43 449.91 364.86 438.24 408.86 360C453.43 280.74 474.43 292.5 540 225C561.86 202.5 583.71 201.16 583.71 180C583.71 161.08 565.43 155.99 540 144.83C453.57 106.9 433.18 70.7 360 81.82" stroke="rgba(247, 241, 255, 1)" stroke-width="2"></path>
        <path d="M900 81.82C871.81 81.82 843.9 128.84 843.9 180C843.9 249.93 871.79 324 900 324C928.26 324 956.84 249.88 956.84 180C956.84 128.79 928.28 81.82 900 81.82" stroke="rgba(247, 241, 255, 1)" stroke-width="2"></path>
        <path d="M720 528.2C714.77 528.2 715.05 534.62 709.09 540C625.05 615.92 631.7 628.05 540 690.81C500.2 718.05 494.08 712.22 446.09 720C404.08 726.81 403.04 720 360 720C321.92 720 319.8 729.63 283.85 720C229.8 705.52 225.15 671.79 180 671.79C157.15 671.79 173.2 713.21 147.86 720C83.2 737.32 33.34 760.59 0 720C-40.59 670.59 0 630 0 540C0 450 0 450 0 360C0 270 0 270 0 180C0 90 -45 45 0 0C45 -45 90 0 180 0C270 0 270 0 360 0C450 0 450 0 540 0C630 0 630 0 720 0C810 0 810 0 900 0C990 0 990 0 1080 0C1170 0 1170 0 1260 0C1350 0 1395 -45 1440 0C1485 45 1440 90 1440 180C1440 270 1440 270 1440 360C1440 450 1440 450 1440 540C1440 630 1485 675 1440 720C1395 765 1350 720 1260 720C1170 720 1170 720 1080 720C990 720 990 720 900 720C839.51 720 812.57 755.38 779.02 720C727.24 665.38 756.66 628.74 729.35 540C727.15 532.84 724.9 528.2 720 528.2" stroke="rgba(247, 241, 255, 1)" stroke-width="2"></path>
        <path d="M180 108C141.16 149.83 137.04 146.93 90 180C47.04 210.2 29.64 234.55 0 234.55C-15.36 234.55 0 207.27 0 180C0 90 -45 45 0 0C45 -45 90 0 180 0C218.57 0 257.14 -19.85 257.14 0C257.14 34.15 224.73 59.83 180 108" stroke="rgba(247, 241, 255, 1)" stroke-width="2"></path>
        <path d="M540 93.1C478.5 45.51 415.38 25.84 415.38 0C415.38 -20.71 477.69 0 540 0C630 0 630 0 720 0C800 0 865.59 -39.63 880 0C898.31 50.37 797.73 86.03 785.45 180C774.2 266.03 793.51 280.48 832.94 360C850.79 396 867.48 384.27 900 411.04C976.8 474.27 982.7 469.99 1051.58 540C1072.7 561.47 1057.35 574.44 1080 594C1161.56 664.44 1260 685.37 1260 720C1260 748.37 1170 720 1080 720C990 720 990 720 900 720C876.39 720 863.89 737.81 852.79 720C807.79 647.81 830.07 624.55 787.79 540C763.67 491.77 755.52 454.43 720 454.43C682.08 454.43 682.57 499.37 640.91 540C592.57 587.15 590.97 630 540 630C487.66 630 448.66 598.03 434.29 540C415.23 463.03 438.39 441.79 473.14 360C491.25 317.38 506.57 325.59 540 291.18C594 235.59 648 232.28 648 180C648 133.24 594.81 135.51 540 93.1" stroke="rgba(247, 241, 255, 1)" stroke-width="2"></path>
        <path d="M1016.05 180C1016.05 129.82 1045.17 127.3 1080 78.75C1109.73 37.3 1102.78 18.54 1145.17 0C1192.78 -20.83 1202.59 0 1260 0C1350 0 1393.64 -43.64 1440 0C1483.64 41.07 1483.52 132.81 1440 169.41C1393.52 208.49 1346.21 147.15 1260 151.36C1237.68 152.45 1242.22 166.73 1222.94 180C1152.22 228.69 1142.02 275.29 1080 275.29C1038.57 275.29 1016.05 228.09 1016.05 180" stroke="rgba(247, 241, 255, 1)" stroke-width="2"></path>
        <path d="M1240 360C1240 332.14 1238.5 323.48 1260 306C1338.5 242.19 1389.25 182.2 1440 197.42C1479.25 209.2 1440 278.71 1440 360C1440 450 1440 450 1440 540C1440 607.5 1471.21 675 1440 675C1391.8 675 1347.35 616.1 1281.18 540C1257.35 512.6 1268.36 504.53 1260 468C1247.77 414.53 1240 413.14 1240 360" stroke="rgba(247, 241, 255, 1)" stroke-width="2"></path>
        <path d="M0 446.25C59.72 429.19 95.08 456.54 180 488.57C219.36 503.42 248.57 514.28 248.57 540C248.57 565.71 207.52 559.32 180 591.43C130.38 649.32 150.18 680.08 94.29 720C60.18 744.36 16.21 750.94 0 720C-30.94 660.94 0 630 0 540C0 493.13 -30.28 454.9 0 446.25" stroke="rgba(247, 241, 255, 1)" stroke-width="2"></path>
        <path d="M540 41.38C512.89 19.94 484.62 11.49 484.62 0C484.62 -9.2 512.31 0 540 0C630 0 630 0 720 0C750 0 779.15 -21.81 780 0C782.66 68.19 735.99 88.35 727.01 180C718.35 268.35 747.69 274.84 744.71 360C744.18 375.17 731.11 369.03 720 380.66C645.12 459.03 647.6 461.58 572.73 540C557.6 555.85 556.53 569.19 540 569.19C523.02 569.19 505.96 560.68 505.71 540C504.68 456.08 520.62 449.52 537.43 360C537.77 358.19 538.71 358.67 540 357.35C626.14 268.67 712.29 263.4 712.29 180C712.29 105.41 626.72 109.94 540 41.38" stroke="rgba(247, 241, 255, 1)" stroke-width="2"></path>
        <path d="M1075.26 180C1075.26 176.28 1076.89 172.5 1080 172.5C1084.55 172.5 1090.59 176.32 1090.59 180C1090.59 183.6 1084.59 187.06 1080 187.06C1076.93 187.06 1075.26 183.56 1075.26 180" stroke="rgba(247, 241, 255, 1)" stroke-width="2"></path>
        <path d="M1260 49.09C1232.62 38.86 1222.76 15.3 1222.76 0C1222.76 -9.25 1241.38 0 1260 0C1350 0 1377.97 -27.97 1440 0C1467.97 12.62 1467.67 73.63 1440 81.18C1377.67 98.18 1341.24 79.45 1260 49.09" stroke="rgba(247, 241, 255, 1)" stroke-width="2"></path>
        <path d="M1418.4 360C1418.4 349.03 1433.37 342.58 1440 342.58C1444.17 342.58 1440 351.29 1440 360C1440 380.77 1445.08 401.54 1440 401.54C1434.28 401.54 1418.4 378.51 1418.4 360" stroke="rgba(247, 241, 255, 1)" stroke-width="2"></path>
        <path d="M846.23 540C846.23 504.74 870.8 478.21 900 478.21C934 478.21 972.63 502.6 972.63 540C972.63 598.19 932.51 669.38 900 669.38C869.31 669.38 846.23 600.32 846.23 540" stroke="rgba(247, 241, 255, 1)" stroke-width="2"></path>
        <path d="M0 540C10.3 540 40.71 646.27 40.71 720C40.71 736.27 3.75 736.6 0 720C-16.6 646.6 -10.05 540 0 540" stroke="rgba(247, 241, 255, 1)" stroke-width="2"></path>
    </g>
    <defs>
        <mask id="SvgjsMask2487">
            <rect width="1440" height="720" fill="#ffffff"></rect>
        </mask>
        <linearGradient x1="50%" y1="0%" x2="50%" y2="100%" gradientUnits="userSpaceOnUse" id="SvgjsLinearGradient2488">
            <stop stop-color="rgba(115, 16, 255, 1)" offset="0"></stop>
            <stop stop-color="rgba(137, 42, 154, 1)" offset="1"></stop>
        </linearGradient>
    </defs>
</svg>
